<?xml version="1.0" encoding="utf-8"?>
<!-- Generator: Adobe Illustrator 20.1.0, SVG Export Plug-In . SVG Version: 6.00 Build 0)  -->
<svg version="1.1" id="Layer_1" xmlns="http://www.w3.org/2000/svg" xmlns:xlink="http://www.w3.org/1999/xlink" x="0px" y="0px"
	 viewBox="0 0 512 512" style="enable-background:new 0 0 512 512;" xml:space="preserve">
<style type="text/css">
	.st0{fill:#DDDDDD;}
</style>
<g>
	<path class="st0" d="M437.8,321.6c-28.5-26.8-62.6-46.5-99.8-58.1c38.7-25.9,64.1-69.4,64.1-118.8C402.1,65.4,336.6,1,256,1
		c-80.6,0-146.1,64.4-146.1,143.6c0,49.4,25.5,93.1,64.3,119c-37,11.7-71,31.3-99.6,58C25.9,367.1-0.9,427.8-0.9,492.4
		c0,10.2,8.6,18.6,19.2,18.6s19.2-8.3,19.2-18.6c0-112.6,98.1-204.2,218.6-204.2s218.6,91.6,218.6,204.2c0,10.2,8.6,18.6,19.2,18.6
		c10.3,0,19-8.2,19.4-18.2l0-0.3C513.3,428,486.5,367.3,437.8,321.6z M256,39c59.3,0,107.6,47.4,107.6,105.6
		c0,58.2-48.3,105.5-107.6,105.5s-107.6-47.4-107.6-105.6C148.4,86.4,196.7,39,256,39z"/>
</g>
</svg>
